<?xml version="1.0" encoding="UTF-8" standalone="no"?>
<!DOCTYPE svg PUBLIC "-//W3C//DTD SVG 1.1//EN" "http://www.w3.org/Graphics/SVG/1.1/DTD/svg11.dtd">
<svg width="100%" height="100%" viewBox="0 0 100 47" version="1.1" xmlns="http://www.w3.org/2000/svg" xmlns:xlink="http://www.w3.org/1999/xlink" xml:space="preserve" xmlns:serif="http://www.serif.com/" style="fill-rule:evenodd;clip-rule:evenodd;stroke-linejoin:round;stroke-miterlimit:2;">
    <g transform="matrix(0.0650077,0,0,0.0650077,-20.7374,-142.267)">
        <path d="M872.78,2773.01L872.78,2911.45L319,2911.45L319,2357.68L872.78,2357.68L872.78,2496.12L729.591,2637.73L872.78,2773.01Z" style="fill:rgb(255,91,24);"/>
    </g>
    <g transform="matrix(1,0,0,1,-5.68434e-14,0.031983)">
        <g transform="matrix(0.980499,0,0,0.980499,-256.902,-255.942)">
            <path d="M328.489,296.696L302.807,296.696L302.807,261L364,261L364,296.696L351.562,296.696L321.601,308.935L328.489,296.696Z" style="fill:rgb(77,9,13);"/>
        </g>
        <g transform="matrix(0.038432,0,0,0.038432,35.6482,-83.7563)">
            <path d="M729.591,2637.73L867.813,2907.06L319,2907.06L321.394,2360.64L867.813,2360.64L867.813,2490.74L729.591,2637.73Z" style="fill:white;"/>
        </g>
        <g transform="matrix(0.038432,0,0,0.038432,58.9818,-73.2364)">
            <path d="M859.133,2503.24L729.591,2633.34L312.713,2633.32L312.713,2086.93L731.985,2086.91L859.133,2217.02L859.133,2503.24Z" style="fill:white;"/>
        </g>
    </g>
</svg>
